<svg width="56" height="56" viewBox="0 0 56 56" fill="none" xmlns="http://www.w3.org/2000/svg">
<path d="M28 8C16.972 8 8 16.972 8 28C8 39.028 16.972 48 28 48C39.028 48 48 39.028 48 28C48 16.972 39.028 8 28 8ZM28 46.6667C17.7073 46.6667 9.33333 38.2927 9.33333 28C9.33333 17.7073 17.7073 9.33333 28 9.33333C38.2927 9.33333 46.6667 17.7073 46.6667 28C46.6667 38.2927 38.2927 46.6667 28 46.6667Z" fill="#B8CCED"/>
<path d="M28.6667 25.3473V18.586C28.6667 18.2173 28.368 17.9193 28 17.9193C27.632 17.9193 27.3333 18.2173 27.3333 18.586V25.3473C26.4007 25.59 25.6707 26.32 25.428 27.2527H20.6667C20.2987 27.2527 20 27.5507 20 27.9193C20 28.288 20.2987 28.586 20.6667 28.586H25.428C25.726 29.7327 26.7613 30.586 28 30.586C29.4707 30.586 30.6667 29.39 30.6667 27.9193C30.6667 26.68 29.8133 25.6453 28.6667 25.3473ZM28 29.2527C27.2647 29.2527 26.6667 28.6547 26.6667 27.9193C26.6667 27.184 27.2647 26.586 28 26.586C28.7353 26.586 29.3333 27.184 29.3333 27.9193C29.3333 28.6547 28.7353 29.2527 28 29.2527Z" fill="#B8CCED"/>
<path d="M28.0007 14.586C28.3687 14.586 28.6673 14.288 28.6673 13.9193V13.2527C28.6673 12.884 28.3687 12.586 28.0007 12.586C27.6327 12.586 27.334 12.884 27.334 13.2527V13.9193C27.334 14.288 27.6327 14.586 28.0007 14.586Z" fill="#B8CCED"/>
<path d="M28.0007 41.2527C27.6327 41.2527 27.334 41.5507 27.334 41.9193V42.586C27.334 42.9547 27.6327 43.2527 28.0007 43.2527C28.3687 43.2527 28.6673 42.9547 28.6673 42.586V41.9193C28.6673 41.5507 28.3687 41.2527 28.0007 41.2527Z" fill="#B8CCED"/>
<path d="M42.6673 27.2527H42.0007C41.6327 27.2527 41.334 27.5507 41.334 27.9193C41.334 28.288 41.6327 28.586 42.0007 28.586H42.6673C43.0353 28.586 43.334 28.288 43.334 27.9193C43.334 27.5507 43.0353 27.2527 42.6673 27.2527Z" fill="#B8CCED"/>
<path d="M13.9993 27.2527H13.3327C12.9647 27.2527 12.666 27.5507 12.666 27.9193C12.666 28.288 12.9647 28.586 13.3327 28.586H13.9993C14.3673 28.586 14.666 28.288 14.666 27.9193C14.666 27.5507 14.3673 27.2527 13.9993 27.2527Z" fill="#B8CCED"/>
<path d="M37.8993 17.0767L37.4279 17.548C37.1673 17.8087 37.1673 18.23 37.4279 18.4907C37.5579 18.6207 37.7286 18.686 37.8993 18.686C38.0699 18.686 38.2406 18.6207 38.3706 18.4907L38.8419 18.0193C39.1026 17.7587 39.1026 17.3373 38.8419 17.0767C38.5813 16.816 38.1599 16.8167 37.8993 17.0767Z" fill="#B8CCED"/>
<path d="M17.6297 37.3473L17.1584 37.8187C16.8977 38.0793 16.8977 38.5007 17.1584 38.7613C17.2884 38.8913 17.4591 38.9567 17.6297 38.9567C17.8004 38.9567 17.9711 38.8913 18.1011 38.7613L18.5724 38.29C18.8331 38.0293 18.8331 37.608 18.5724 37.3473C18.3117 37.0867 17.8897 37.0873 17.6297 37.3473Z" fill="#B8CCED"/>
<path d="M38.3706 37.3473C38.1099 37.0867 37.6886 37.0867 37.4279 37.3473C37.1673 37.608 37.1673 38.0293 37.4279 38.29L37.8993 38.7613C38.0293 38.8913 38.1999 38.9567 38.3706 38.9567C38.5413 38.9567 38.7119 38.8913 38.8419 38.7613C39.1026 38.5007 39.1026 38.0793 38.8419 37.8187L38.3706 37.3473Z" fill="#B8CCED"/>
<path d="M18.1011 17.0767C17.8404 16.816 17.4191 16.816 17.1584 17.0767C16.8977 17.3373 16.8977 17.7587 17.1584 18.0193L17.6297 18.4907C17.7597 18.6207 17.9304 18.686 18.1011 18.686C18.2717 18.686 18.4424 18.6207 18.5724 18.4907C18.8331 18.23 18.8331 17.8087 18.5724 17.548L18.1011 17.0767Z" fill="#B8CCED"/>
</svg>
