<svg width="56" height="56" viewBox="0 0 56 56" fill="none" xmlns="http://www.w3.org/2000/svg">
<path d="M48 30.8768C48 30.0832 47.765 29.344 47.3621 28.7232C47.5254 27.7003 47.6091 26.6545 47.6091 25.6094C47.6091 14.7968 38.8124 6 27.9998 6C17.1872 6 8.39029 14.7968 8.39029 25.6094C8.39029 26.6551 8.474 27.7012 8.63748 28.7241C8.23494 29.3446 8 30.0836 8 30.8767C8 32.8523 9.4517 34.4948 11.3442 34.7947C12.3542 43.0884 19.438 49.5344 28 49.5344C36.5619 49.5344 43.6458 43.0885 44.6557 34.7947C46.5484 34.4949 48 32.8523 48 30.8768ZM9.49476 30.8768C9.49476 29.7738 10.2208 28.8375 11.2199 28.52L11.22 32.7545C11.22 32.9157 11.2228 33.0762 11.2274 33.2362C10.2243 32.9209 9.49476 31.9825 9.49476 30.8768ZM28 48.0398C19.5716 48.0398 12.7147 41.1828 12.7147 32.7544L12.7146 25.0266C12.7146 23.8722 13.3201 22.8509 14.3343 22.2946C15.3385 21.7437 16.5123 21.7809 17.4744 22.3941C20.6167 24.3969 24.2564 25.4556 27.9998 25.4556C31.7433 25.4556 35.3831 24.3969 38.5256 22.394C39.4875 21.7809 40.6613 21.7435 41.6656 22.2944C42.6797 22.8506 43.2853 23.872 43.2853 25.0264L43.2854 32.7544C43.2854 41.1828 36.4285 48.0398 28 48.0398ZM42.3843 20.9839C40.8942 20.1665 39.1513 20.2227 37.7222 21.1337C34.8201 22.9834 31.4581 23.9611 27.9997 23.9611C24.5413 23.9611 21.1795 22.9834 18.2776 21.1338C16.8484 20.2228 15.1054 20.1669 13.6153 20.9841C12.1153 21.8069 11.2197 23.3181 11.2198 25.0266V26.981C10.7751 27.0661 10.3569 27.2258 9.978 27.4463C9.91672 26.8376 9.88487 26.2235 9.88487 25.6093C9.88496 15.6209 18.0113 7.49467 27.9998 7.49467C37.9883 7.49467 46.1145 15.6209 46.1145 25.6094C46.1145 26.2234 46.0826 26.8374 46.0213 27.446C45.6425 27.2256 45.2245 27.0661 44.78 26.981V25.0265C44.7798 23.3179 43.8843 21.8067 42.3843 20.9839ZM44.7727 33.2362C44.7773 33.0762 44.7801 32.9157 44.7801 32.7545L44.78 28.5199C45.7793 28.8374 46.5053 29.7738 46.5053 30.8768C46.5053 31.9825 45.7757 32.9209 44.7727 33.2362Z" fill="#B8CCED"/>
<path d="M21.1619 34.0527C21.8564 34.0527 22.4194 33.4897 22.4194 32.7952C22.4194 32.1006 21.8564 31.5376 21.1619 31.5376C20.4673 31.5376 19.9043 32.1006 19.9043 32.7952C19.9043 33.4897 20.4673 34.0527 21.1619 34.0527Z" fill="#B8CCED"/>
<path d="M35.074 34.0527C35.7685 34.0527 36.3316 33.4897 36.3316 32.7952C36.3316 32.1006 35.7685 31.5376 35.074 31.5376C34.3794 31.5376 33.8164 32.1006 33.8164 32.7952C33.8164 33.4897 34.3794 34.0527 35.074 34.0527Z" fill="#B8CCED"/>
<path d="M32.8146 29.5744C32.5227 29.8663 32.5227 30.3393 32.8146 30.6313C33.1065 30.923 33.5796 30.923 33.8715 30.6313C34.5344 29.9682 35.6131 29.9682 36.276 30.6313C36.4219 30.7772 36.6132 30.8501 36.8045 30.8501C36.9958 30.8501 37.187 30.7772 37.3329 30.6313C37.6249 30.3393 37.6249 29.8663 37.3329 29.5744C36.0872 28.3287 34.0604 28.3287 32.8146 29.5744Z" fill="#B8CCED"/>
<path d="M21.1617 28.6387C20.3083 28.6387 19.5059 28.971 18.9025 29.5745C18.6106 29.8664 18.6106 30.3395 18.9025 30.6313C19.1943 30.9231 19.6675 30.9232 19.9594 30.6312C20.2806 30.3101 20.7075 30.1333 21.1616 30.1333C21.6158 30.1333 22.0427 30.3102 22.3638 30.6312C22.5098 30.7773 22.701 30.8502 22.8923 30.8502C23.0835 30.8502 23.2748 30.7773 23.4208 30.6313C23.7126 30.3395 23.7127 29.8664 23.4208 29.5745C22.8175 28.971 22.0151 28.6387 21.1617 28.6387Z" fill="#B8CCED"/>
<path d="M31.0309 37.7463C30.6182 37.7463 30.2835 38.081 30.2835 38.4937C30.2835 39.753 29.2589 40.7777 27.9995 40.7777C26.7401 40.7777 25.7154 39.753 25.7154 38.4937C25.7154 38.081 25.3808 37.7463 24.968 37.7463C24.5553 37.7463 24.2207 38.081 24.2207 38.4937C24.2207 40.5773 25.9158 42.2724 27.9995 42.2724C30.0831 42.2724 31.7782 40.5772 31.7782 38.4937C31.7782 38.081 31.4436 37.7463 31.0309 37.7463Z" fill="#B8CCED"/>
</svg>