<svg width="56" height="56" viewBox="0 0 56 56" fill="none" xmlns="http://www.w3.org/2000/svg">
<path d="M41.0098 29.1416C40.6883 29.1416 40.4277 29.4023 40.4277 29.7238C40.4277 30.1313 40.0961 30.4629 39.6885 30.4629C39.281 30.4629 38.9494 30.1313 38.9494 29.7238C38.9494 29.4022 38.6887 29.1416 38.3673 29.1416C38.0458 29.1416 37.7852 29.4023 37.7852 29.7238C37.7852 30.7733 38.6391 31.6271 39.6885 31.6271C40.738 31.6271 41.5919 30.7732 41.5919 29.7238C41.5919 29.4021 41.3313 29.1416 41.0098 29.1416Z" fill="#B8CCED"/>
<path d="M46.4722 29.2367L44.8337 28.7119C44.6239 28.6446 44.4585 28.4771 44.3914 28.2637C44.0461 27.1658 43.525 26.1351 42.8426 25.2001C42.5316 24.774 42.1857 24.367 41.8079 23.9796C42.0496 22.9192 42.181 21.7191 42.164 20.6823C42.1396 19.1991 41.8432 18.3292 41.2579 18.0226C40.9427 17.8573 39.9833 17.3551 34.7905 19.7322C34.6676 19.7884 34.5527 19.8577 34.4464 19.9371C34.0963 19.843 33.7385 19.756 33.3785 19.6779C33.3352 19.6684 33.2905 19.6601 33.2468 19.6509C33.6676 18.7316 33.9133 17.7333 33.9595 16.7026C33.9738 16.3814 33.7252 16.1094 33.4039 16.0951C33.0835 16.0791 32.8106 16.3293 32.7963 16.6505C32.7205 18.3451 32.0175 19.9396 30.817 21.1401C30.0998 21.8574 29.2599 22.3784 28.3648 22.7066C26.8126 22.4887 25.2315 22.4887 23.6792 22.7066C22.7841 22.3784 21.9443 21.8574 21.227 21.1401C19.9462 19.8594 19.2409 18.1565 19.2409 16.3451C19.2409 14.5337 19.9462 12.8309 21.227 11.5502C22.5078 10.2693 24.2108 9.5639 26.022 9.5639C27.8333 9.5639 29.5363 10.2693 30.817 11.5502C31.3317 12.0648 31.757 12.6522 32.0812 13.2957C32.2258 13.5829 32.5759 13.6985 32.863 13.5538C33.1502 13.4093 33.2657 13.0592 33.1211 12.7721C32.7412 12.0175 32.243 11.3294 31.6404 10.7268C30.1397 9.22609 28.1444 8.3996 26.0221 8.3996C23.8998 8.3996 21.9045 9.22609 20.4038 10.7268C18.9031 12.2276 18.0766 14.2228 18.0766 16.3451C18.0766 18.4673 18.9031 20.4626 20.4038 21.9633C20.8367 22.3962 21.3077 22.7685 21.8058 23.0804C21.8059 23.0804 21.8061 23.0803 21.8062 23.0803C21.4443 23.1744 21.0851 23.28 20.7298 23.3987C20.4249 23.5007 20.2604 23.8305 20.3623 24.1355C20.4642 24.4404 20.7941 24.6049 21.099 24.503C24.2737 23.4417 27.7705 23.4417 30.9452 24.503C31.0065 24.5235 31.0687 24.5332 31.1298 24.5332C31.3734 24.5332 31.6004 24.3791 31.6819 24.1355C31.7838 23.8305 31.6193 23.5007 31.3144 23.3987C30.9591 23.28 30.5999 23.1743 30.238 23.0803C30.2381 23.0803 30.2383 23.0804 30.2384 23.0804C30.7366 22.7685 31.2075 22.3962 31.6404 21.9633C32.0234 21.5804 32.3614 21.1622 32.6549 20.7177C32.8154 20.7489 32.9747 20.7816 33.1316 20.8156C33.3407 20.861 33.5488 20.9098 33.7551 20.9609C33.7486 20.9862 33.742 21.0115 33.7366 21.0372C33.4527 22.3844 33.4711 23.576 33.7913 24.5786C34.0791 25.4798 34.5986 26.2098 35.3351 26.7487C36.2031 27.3837 37.2511 27.658 38.2004 27.658C38.9148 27.658 39.5735 27.5025 40.0573 27.2285C40.6045 26.9186 41.0629 26.2655 41.4258 25.2851C41.5935 25.4808 41.7525 25.6814 41.9023 25.8867C42.5099 26.7191 42.9738 27.6364 43.2809 28.6131C43.4613 29.1868 43.9091 29.6382 44.4788 29.8208L46.1172 30.3456C46.5471 30.4833 46.8359 30.8791 46.8359 31.3305V34.0473C46.8359 34.4987 46.5471 34.8944 46.1172 35.0321L43.4774 35.8776C43.0551 36.013 42.6977 36.3033 42.471 36.695C41.4339 38.4873 39.8034 39.9705 37.6244 41.1034C37.3727 41.2344 37.1983 41.4687 37.1458 41.7464L36.3003 46.2232C36.277 46.3465 36.1689 46.436 36.0434 46.436H33.2944C33.1688 46.436 33.0608 46.3465 33.0374 46.2232L32.5691 43.749C32.477 43.2623 32.0204 42.9389 31.529 43.0133C30.3448 43.1924 29.1247 43.2831 27.9026 43.2831C26.9934 43.2831 26.0958 43.2324 25.2346 43.1323C24.7584 43.0776 24.3148 43.4022 24.2259 43.8723L23.7809 46.2232C23.7575 46.3465 23.6495 46.436 23.5239 46.436H20.7749C20.6494 46.436 20.5413 46.3465 20.5177 46.2213L19.7036 41.993C19.6512 41.7206 19.4801 41.489 19.2339 41.3575C15.5195 39.3746 13.5563 36.0618 13.5563 31.7774C13.5563 29.6127 14.0298 27.6986 14.9638 26.088C15.8354 24.5849 17.1084 23.3422 18.7473 22.3941C19.0256 22.2331 19.1207 21.877 18.9598 21.5987C18.7988 21.3204 18.4427 21.2255 18.1644 21.3862C14.9863 23.2247 13.0695 26.0609 12.5418 29.6633V29.6632C12.4858 29.6581 12.4297 29.6533 12.3738 29.6475C12.384 29.2588 12.3137 28.8666 12.1605 28.486C11.8228 27.6465 11.1291 27.0405 10.393 26.9423C9.81305 26.8647 9.26109 27.1109 8.87805 27.617C8.32266 28.3509 8.4132 28.9317 8.58688 29.2897C8.88008 29.8938 9.63375 30.3212 10.8845 30.5898C10.8501 30.6413 10.8123 30.693 10.7709 30.745C10.0319 31.6718 9.16125 31.8767 8.59594 31.896C8.265 31.9072 8 32.1729 8 32.5041V32.5069C8 32.8335 8.25773 33.0999 8.58406 33.1148C8.62586 33.1168 8.66953 33.1178 8.715 33.1178C9.43031 33.1178 10.5784 32.854 11.6813 31.4709C11.8555 31.2526 11.9973 31.0223 12.1064 30.7844C12.2162 30.7968 12.3218 30.8074 12.4229 30.8168C12.4229 30.8166 12.4229 30.8164 12.423 30.8162C12.4031 31.1316 12.3921 31.4517 12.3921 31.7774C12.3921 34.2015 12.97 36.3628 14.1096 38.2016C15.1604 39.8969 16.6648 41.2851 18.5827 42.329L19.3741 46.4396C19.5013 47.1121 20.0905 47.6002 20.7749 47.6002H23.5239C24.2084 47.6002 24.7975 47.1121 24.9248 46.4396L25.3271 44.314C26.1627 44.4025 27.0279 44.4473 27.9025 44.4473C29.1025 44.4473 30.3011 44.3637 31.4692 44.1987L31.8934 46.4397C32.0207 47.1123 32.6098 47.6003 33.2942 47.6003H36.0432C36.7277 47.6003 37.3168 47.1122 37.4441 46.4394L38.2673 42.0808C40.593 40.851 42.3459 39.2355 43.4786 37.278C43.5602 37.1369 43.6859 37.0334 43.8325 36.9865L46.4722 36.1409C47.386 35.848 48 35.0067 48 34.0471V31.3303C48 30.3708 47.386 29.5294 46.4722 29.2367ZM40.9123 22.3182C40.6883 24.2343 40.0873 25.8733 39.4834 26.2154C38.797 26.6042 37.2122 26.6793 36.0223 25.8089C34.8311 24.9375 34.4346 23.3705 34.8756 21.2772C34.8756 21.2771 34.8756 21.2771 34.8756 21.2771C34.9199 21.0669 35.0693 20.885 35.2752 20.7908C38.1895 19.4567 39.8698 19.0204 40.494 19.0204C40.5882 19.0204 40.6584 19.0303 40.7051 19.0486C40.8926 19.2484 41.1385 20.3844 40.9123 22.3182ZM9.63445 28.7813C9.57422 28.6571 9.71641 28.4387 9.80656 28.3195C9.94945 28.1308 10.0811 28.0922 10.1805 28.0922C10.2016 28.0922 10.2212 28.0939 10.2391 28.0963C10.5068 28.132 10.8818 28.4266 11.0805 28.9204C11.1273 29.0366 11.188 29.2292 11.2023 29.4694C10.3964 29.3024 9.77031 29.0617 9.63445 28.7813Z" fill="#B8CCED"/>
<path d="M26.5877 15.6779V13.5948C27.3061 13.6461 27.573 13.9745 27.8192 13.9745C28.1271 13.9745 28.2708 13.5845 28.2708 13.3895C28.2708 12.8866 27.2855 12.6712 26.5877 12.6506V12.3734C26.5877 12.2503 26.4338 12.1374 26.2798 12.1374C26.1053 12.1374 25.9822 12.2503 25.9822 12.3734V12.671C25.0073 12.7737 24.0323 13.2868 24.0323 14.5798C24.0323 15.8934 25.0586 16.2629 25.9822 16.5912V19.0029C24.9354 18.9208 24.6584 18.2024 24.3197 18.2024C24.0631 18.2024 23.8477 18.5411 23.8477 18.7874C23.8477 19.2902 24.7097 19.9778 25.9822 19.9984V20.3165C25.9822 20.4396 26.1054 20.5525 26.2798 20.5525C26.4338 20.5525 26.5877 20.4396 26.5877 20.3165V19.9676C27.6961 19.8136 28.4555 19.1158 28.4555 17.8535C28.4555 16.4579 27.4805 16.0062 26.5877 15.6779ZM26.0437 15.483C25.4998 15.2777 25.0586 15.0623 25.0586 14.4773C25.0586 13.9437 25.4691 13.6871 26.0437 13.6153V15.483ZM26.5261 18.9823V16.817C27.0289 17.0325 27.4291 17.3198 27.4291 17.9663C27.4291 18.5514 27.0802 18.8798 26.5261 18.9823Z" fill="#B8CCED"/>
</svg>
