<svg width="56" height="56" viewBox="0 0 56 56" fill="none" xmlns="http://www.w3.org/2000/svg">
<circle cx="28" cy="28" r="28" fill="white" fill-opacity="0.2"/>
<path d="M28 8C16.9723 8 8 16.9723 8 28C8 39.0277 16.9723 48 28 48C39.0277 48 48 39.0277 48 28C48 16.9723 39.0277 8 28 8ZM28 46.0016C18.0734 46.0016 9.99837 37.9266 9.99837 28C9.99837 18.0734 18.0734 9.99837 28 9.99837C37.9266 9.99837 46.0016 18.0734 46.0016 28C46.0016 37.9266 37.9266 46.0016 28 46.0016Z" fill="white"/>
<path d="M28.1529 22.355C28.9236 22.355 29.5866 22.4967 30.1419 22.78C30.7086 23.0633 31.1392 23.4487 31.4339 23.936C31.7286 24.4233 31.8759 24.9673 31.8759 25.568C31.8759 26.214 31.7342 26.8373 31.4509 27.438C31.1789 28.0273 30.7199 28.6847 30.0739 29.41C29.4279 30.1353 28.4816 31.093 27.2349 32.283H32.1309L31.8929 34H24.7699V32.402C26.2206 30.9287 27.2576 29.8407 27.8809 29.138C28.5156 28.424 28.9632 27.8177 29.2239 27.319C29.4959 26.809 29.6319 26.282 29.6319 25.738C29.6319 25.2167 29.4789 24.8087 29.1729 24.514C28.8782 24.2193 28.4816 24.072 27.9829 24.072C27.5409 24.072 27.1499 24.1683 26.8099 24.361C26.4812 24.5423 26.1356 24.8483 25.7729 25.279L24.4469 24.225C25.4102 22.9783 26.6456 22.355 28.1529 22.355Z" fill="white"/>
</svg>
