<svg width="56" height="56" viewBox="0 0 56 56" fill="none" xmlns="http://www.w3.org/2000/svg">
<path d="M47.7956 23.3171C47.6347 23.1295 47.3997 23.0213 47.1514 23.0213H45.3888V13.5187C45.3888 12.8677 44.8593 12.3383 44.2084 12.3383H23.7342L22.0751 9.57351C21.8634 9.21966 21.4755 9 21.0629 9H11.8507C11.2004 9.00067 10.6709 9.53011 10.6709 10.1804V23.0207H8.84825C8.60122 23.0207 8.36687 23.1281 8.20597 23.3151C8.04439 23.502 7.97229 23.7497 8.00968 23.9961L11.2925 45.664C11.3533 46.0766 11.7138 46.3884 12.1318 46.3884H43.8678C44.2858 46.3884 44.6463 46.0766 44.7064 45.6667L47.9899 23.9988C48.028 23.7537 47.9572 23.5054 47.7956 23.3171ZM12.0062 10.336H20.9754L22.6346 13.1007C22.8462 13.4546 23.2341 13.6742 23.6467 13.6742H44.0535V23.0213H43.3858V20.3507H42.7182V18.3478H42.0505V16.3448H14.0092V18.3478H13.3415V20.3507H12.6739V23.0213H12.0062V10.336ZM14.0092 21.686H42.0505V23.0213H14.0092V21.686ZM14.6768 19.6831H41.3829V20.3507H14.6768V19.6831ZM40.7152 18.3478H15.3445V17.6801H40.7152V18.3478ZM43.4492 45.0538H12.5504L9.41508 24.3566H10.6709H12.6739H43.3858H45.3888H46.5852L43.4492 45.0538Z" fill="#AEC5EB"/>
</svg>
