<svg width="56" height="56" viewBox="0 0 56 56" fill="none" xmlns="http://www.w3.org/2000/svg">
<path d="M46.9531 38.8586L38.8564 33.4591C37.8289 32.7793 36.4516 33.003 35.692 33.973L33.3335 37.0054C33.0304 37.4051 32.4794 37.521 32.0409 37.2774L31.5923 37.0301C30.1051 36.2195 28.2546 35.2102 24.5262 31.4805C20.7978 27.7508 19.7866 25.8989 18.9759 24.4144L18.7299 23.9658C18.483 23.5274 18.5967 22.9741 18.9965 22.6686L22.0269 20.3108C22.9966 19.5511 23.2205 18.1741 22.5416 17.1463L17.142 9.04961C16.4462 8.00297 15.0502 7.68878 13.973 8.33631L10.5873 10.3701C9.52345 10.9956 8.74296 12.0084 8.40947 13.1966C7.19027 17.6389 8.10747 25.3056 19.4013 36.6008C28.3853 45.5841 35.0734 47.9999 39.6704 47.9999C40.7284 48.0044 41.7822 47.8668 42.8035 47.5906C43.9919 47.2575 45.0049 46.477 45.63 45.4128L47.6658 42.0291C48.3143 40.9517 48.0002 39.5548 46.9531 38.8586ZM46.5172 41.3451L44.486 44.7308C44.0372 45.4989 43.3086 46.0636 42.4528 46.3067C38.3518 47.4327 31.187 46.5001 20.3445 35.6576C9.50197 24.815 8.56946 17.6509 9.69539 13.5493C9.93881 12.6925 10.5042 11.9629 11.2732 11.5134L14.659 9.48223C15.1264 9.20101 15.7323 9.33732 16.0342 9.79151L18.9673 14.1952L21.4292 17.8875C21.724 18.3333 21.6271 18.9309 21.2065 19.2608L18.1754 21.6186C17.253 22.3239 16.9896 23.6001 17.5575 24.613L17.7982 25.0503C18.6502 26.6129 19.7094 28.5567 23.5764 32.4231C27.4435 36.2895 29.3867 37.3488 30.9485 38.2006L31.3865 38.442C32.3993 39.0098 33.6756 38.7465 34.3809 37.824L36.7387 34.7929C37.0687 34.3726 37.666 34.2758 38.1119 34.5703L46.208 39.9699C46.6625 40.2716 46.7988 40.8778 46.5172 41.3451Z" fill="#B8CCED"/>
<path d="M30.6666 14.6692C36.9224 14.6762 41.992 19.7459 41.9991 26.0017C41.9991 26.3699 42.2975 26.6683 42.6657 26.6683C43.0338 26.6683 43.3323 26.3699 43.3323 26.0017C43.3245 19.0098 37.6585 13.3437 30.6666 13.3361C30.2984 13.3361 30 13.6345 30 14.0026C30 14.3708 30.2984 14.6692 30.6666 14.6692Z" fill="#B8CCED"/>
<path d="M30.6666 18.6689C34.7144 18.6736 37.9946 21.9539 37.9994 26.0017C37.9994 26.3698 38.2979 26.6683 38.666 26.6683C39.0341 26.6683 39.3326 26.3698 39.3326 26.0017C39.327 21.2178 35.4504 17.3412 30.6666 17.3357C30.2984 17.3357 30 17.6341 30 18.0023C30 18.3705 30.2984 18.6689 30.6666 18.6689Z" fill="#B8CCED"/>
<path d="M30.6666 22.6685C32.5064 22.6707 33.9974 24.1617 33.9997 26.0016C33.9997 26.3698 34.2982 26.6682 34.6663 26.6682C35.0344 26.6682 35.3329 26.3698 35.3329 26.0016C35.3299 23.4257 33.2425 21.3382 30.6666 21.3353C30.2984 21.3353 30 21.6337 30 22.0019C30 22.3701 30.2984 22.6685 30.6666 22.6685Z" fill="#B8CCED"/>
</svg>
