<svg width="56" height="56" viewBox="0 0 56 56" fill="none" xmlns="http://www.w3.org/2000/svg">
<path d="M43.6507 42.8915C43.2623 42.8915 42.9475 43.2063 42.9475 43.5947V50.2053C42.9475 50.4194 42.7733 50.5936 42.5593 50.5936H38.7796V36.747C38.7796 36.3587 38.4648 36.0438 38.0765 36.0438C37.6882 36.0438 37.3733 36.3587 37.3733 36.747V50.5937H29.7623L31.9694 48.1655C32.2105 47.9002 32.3243 47.5223 32.2735 47.1543C32.2726 47.1471 32.2715 47.14 32.2703 47.1329L30.1681 34.7141L30.7344 33.8615C31.0476 34.0839 31.2888 34.298 31.7411 34.298C32.2013 34.298 32.6315 34.0405 32.8432 33.6166V33.6165L35.0603 29.1727L40.1112 31.1288C40.2939 31.2072 42.9473 32.4021 42.9473 35.5574V40.3133C42.9473 40.7015 43.2621 41.0164 43.6505 41.0164C44.0388 41.0164 44.3536 40.7016 44.3536 40.3133V35.5574C44.3536 31.4001 40.794 29.889 40.6425 29.8266C40.6381 29.8248 40.6336 29.823 40.6291 29.8213L32.2227 26.5657V24.5942C33.5579 23.5558 34.4837 22.0165 34.7161 20.2604C35.3818 20.2135 35.9995 19.9649 36.504 19.5311C37.1628 18.9646 37.5408 18.14 37.5408 17.2693C37.5408 16.5467 37.2801 15.8567 36.8154 15.319V12.7143C36.8153 7.90928 32.9062 4 28.1011 4C23.296 4 19.3868 7.90928 19.3868 12.7143V15.3872C18.9173 15.9195 18.6619 16.5746 18.6619 17.2692C18.6619 18.1402 19.0397 18.9647 19.6987 19.5313C20.2027 19.9649 20.8201 20.2132 21.4856 20.2602C21.7199 22.0492 22.6727 23.6459 24.1216 24.6982V26.5657L15.7243 29.8212C15.7199 29.8229 15.7155 29.8247 15.7111 29.8264C15.5595 29.8888 12 31.3999 12 35.5572V50.2052C12 51.1947 12.805 51.9997 13.7946 51.9997H20.4937C20.882 51.9997 21.1968 51.6849 21.1968 51.2966C21.1968 50.9083 20.882 50.5935 20.4937 50.5935H18.9808V36.747C18.9808 36.3587 18.666 36.0438 18.2777 36.0438C17.8894 36.0438 17.5746 36.3587 17.5746 36.747V50.5937H13.7947C13.5806 50.5937 13.4064 50.4195 13.4064 50.2054V35.5573C13.4064 32.3914 16.0777 31.1992 16.2417 31.1291L21.2887 29.1725L23.506 33.6165C23.7182 34.0414 24.149 34.298 24.6082 34.298C25.0583 34.298 25.2971 34.0872 25.6148 33.8615L26.1812 34.7141L24.0792 47.133C24.078 47.14 24.077 47.147 24.0759 47.1542C24.0251 47.522 24.1388 47.9001 24.3801 48.1656L26.5872 50.5938H23.7752C23.3869 50.5938 23.0721 50.9086 23.0721 51.2969C23.0721 51.6852 23.3869 52 23.7752 52H42.5594C43.5489 52 44.354 51.1949 44.354 50.2054V43.5947C44.3538 43.2063 44.039 42.8915 43.6507 42.8915ZM33.7433 28.6627L31.6762 32.8055C31.6248 32.7691 30.5293 31.9907 29.1902 31.0398C29.7712 30.3226 29.0915 31.1616 31.7435 27.8883L33.7433 28.6627ZM29.5871 33.0468L29.0511 33.8538H27.2977L26.7616 33.0468L28.1744 32.0434L29.5871 33.0468ZM25.5277 26.7926V25.4767C26.382 25.8211 27.2949 25.9807 28.1865 25.9807C29.1083 25.9807 30.0124 25.7842 30.8164 25.4327V26.7983L28.1744 30.0594L25.5277 26.7926ZM36.1344 17.2693C36.1343 17.7299 35.9348 18.1657 35.587 18.4649C35.3571 18.6627 35.0793 18.7892 34.7751 18.8387V15.7002C35.5832 15.8314 36.1344 16.5017 36.1344 17.2693ZM21.4275 18.8387C20.6102 18.706 20.0681 18.0302 20.0681 17.2692C20.0681 16.5175 20.6913 15.9057 21.4275 15.7355V18.8387ZM21.4653 14.3028C21.2413 14.3284 20.9846 14.3891 20.7933 14.4542V12.7143C20.7933 8.68469 24.0715 5.40634 28.1012 5.40634C32.1308 5.40634 35.4091 8.68469 35.4091 12.7143V14.4059C35.2047 14.3437 34.9928 14.3027 34.7752 14.2833C34.7752 13.6049 34.7811 13.7357 32.5615 11.3495C32.1533 10.911 31.4782 10.8191 30.9643 11.1548C28.5146 12.755 25.5263 13.5589 22.7692 13.3609C22.1644 13.3157 21.6135 13.714 21.4653 14.3028ZM22.8338 19.3923V15.0055V14.7744C25.869 14.9522 29.0512 14.0505 31.6219 12.4041C32.6398 13.4971 33.1911 14.0703 33.3688 14.2884C33.3688 14.84 33.3688 18.7607 33.3688 19.3922C33.3688 22.2466 31.0414 24.5743 28.1866 24.5743C24.9809 24.5744 22.8338 22.0876 22.8338 19.3923ZM24.6727 32.8055L22.6057 28.6627L24.6019 27.8896L27.1557 31.0419C25.857 31.9641 24.7906 32.7218 24.6727 32.8055ZM25.4795 47.2846L27.5147 35.2599H28.8338L30.8691 47.2846L28.1743 50.2492L25.4795 47.2846Z" fill="#06A77D"/>
</svg>
