<svg width="56" height="56" viewBox="0 0 56 56" fill="none" xmlns="http://www.w3.org/2000/svg">
<path d="M35.9994 22.6666H19.3327C18.9647 22.6666 18.666 22.9653 18.666 23.3333C18.666 23.7013 18.9647 24 19.3327 24H35.9994C36.3674 24 36.666 23.7013 36.666 23.3333C36.666 22.9653 36.3674 22.6666 35.9994 22.6666Z" fill="#06A77D"/>
<path d="M19.3327 18.6667H25.9993C26.3673 18.6667 26.666 18.368 26.666 18C26.666 17.632 26.3673 17.3334 25.9993 17.3334H19.3327C18.9647 17.3334 18.666 17.632 18.666 18C18.666 18.368 18.9647 18.6667 19.3327 18.6667Z" fill="#06A77D"/>
<path d="M35.9994 28H19.3327C18.9647 28 18.666 28.2987 18.666 28.6667C18.666 29.0347 18.9647 29.3333 19.3327 29.3333H35.9994C36.3674 29.3333 36.666 29.0347 36.666 28.6667C36.666 28.2987 36.3674 28 35.9994 28Z" fill="#06A77D"/>
<path d="M30.666 33.3334H19.3327C18.9647 33.3334 18.666 33.632 18.666 34C18.666 34.368 18.9647 34.6667 19.3327 34.6667H30.666C31.034 34.6667 31.3327 34.368 31.3327 34C31.3327 33.632 31.034 33.3334 30.666 33.3334Z" fill="#06A77D"/>
<path d="M28.666 40C29.034 40 29.3327 39.7013 29.3327 39.3333C29.3327 38.9653 29.034 38.6666 28.666 38.6666H19.3327C18.9647 38.6666 18.666 38.9653 18.666 39.3333C18.666 39.7013 18.9647 40 19.3327 40H28.666Z" fill="#06A77D"/>
<path d="M13.3333 9.33333H32.6667V18.6667H42V30.6667H43.3333V17.724L33.6093 8H12V48H31.3333V46.6667H13.3333V9.33333ZM34 10.276L41.0573 17.3333H34V10.276Z" fill="#06A77D"/>
<path d="M50.4587 32.7747L48.5594 30.8747C47.8074 30.1227 46.4967 30.1227 45.7447 30.8747L35.4841 41.1347L34.0701 46.3207L33.7241 46.6667C33.4654 46.9253 33.4647 47.3427 33.7201 47.6033L33.7167 47.6167L33.7301 47.6133C33.8594 47.74 34.0274 47.8047 34.1954 47.8047C34.3661 47.8047 34.5367 47.7393 34.6667 47.6093L35.0127 47.2633L40.1987 45.8493L50.4587 35.5887C50.8347 35.2127 51.0421 34.7133 51.0421 34.1813C51.0421 33.6493 50.8347 33.15 50.4587 32.7747ZM37.0234 41.4813L43.8521 34.6527L46.6807 37.4813L39.8521 44.31L37.0234 41.4813ZM36.4214 42.7647L38.568 44.9113L35.6167 45.716L36.4214 42.7647ZM49.5161 34.646L47.6234 36.5387L44.7947 33.71L46.6874 31.8173C46.9354 31.5693 47.3681 31.5687 47.6161 31.8173L49.5161 33.7173C49.6401 33.8413 49.7087 34.006 49.7087 34.1813C49.7081 34.3567 49.6401 34.522 49.5161 34.646Z" fill="#06A77D"/>
</svg>
