<svg width="56" height="56" viewBox="0 0 56 56" fill="none" xmlns="http://www.w3.org/2000/svg">
<circle cx="28" cy="28" r="28" fill="white" fill-opacity="0.2"/>
<path d="M28 8C16.9723 8 8 16.9723 8 28C8 39.0277 16.9723 48 28 48C39.0277 48 48 39.0277 48 28C48 16.9723 39.0277 8 28 8ZM28 46.0016C18.0734 46.0016 9.99837 37.9266 9.99837 28C9.99837 18.0734 18.0734 9.99837 28 9.99837C37.9266 9.99837 46.0016 18.0734 46.0016 28C46.0016 37.9266 37.9266 46.0016 28 46.0016Z" fill="white"/>
<path d="M29.2083 22.559V34H27.0663V24.752L24.5163 26.299L23.5643 24.837L27.2873 22.559H29.2083Z" fill="white"/>
</svg>
