<svg width="56" height="56" viewBox="0 0 56 56" fill="none" xmlns="http://www.w3.org/2000/svg">
<path d="M35.0312 31.9219C34.5998 31.9219 34.25 32.2716 34.25 32.7031V38.0938C34.25 40.2477 32.4977 42 30.3438 42H21.9087C21.4774 42 21.1278 42.3495 21.1275 42.7807L21.1264 44.334L19.2617 42.4694C19.141 42.1923 18.8648 42 18.5452 42H13.4688C11.3148 42 9.5625 40.2477 9.5625 38.0938V26.0625C9.5625 23.9086 11.3148 22.1562 13.4688 22.1562H21.3594C21.7908 22.1562 22.1406 21.8065 22.1406 21.375C22.1406 20.9435 21.7908 20.5938 21.3594 20.5938H13.4688C10.4533 20.5938 8 23.047 8 26.0625V38.0938C8 41.1092 10.4533 43.5625 13.4688 43.5625H18.1452L21.3538 46.7712C21.5033 46.9206 21.703 47 21.9064 47C22.007 47 22.1084 46.9805 22.2049 46.9406C22.4969 46.8198 22.6873 46.5352 22.6875 46.2193L22.6894 43.5625H30.3438C33.3592 43.5625 35.8125 41.1092 35.8125 38.0938V32.7031C35.8125 32.2716 35.4627 31.9219 35.0312 31.9219Z" fill="#B8CCED"/>
<path d="M36.6449 7H34.6677C28.4064 7 23.3125 12.0939 23.3125 18.3552C23.3125 24.6164 28.4064 29.7102 34.6676 29.7102H36.6448C37.6221 29.7102 38.5894 29.5861 39.5269 29.3408L42.4477 32.26C42.5972 32.4093 42.7969 32.4887 43.0002 32.4887C43.1009 32.4887 43.2024 32.4692 43.2991 32.4291C43.5909 32.3082 43.7812 32.0234 43.7812 31.7074V27.1874C45.0179 26.1859 46.0452 24.9209 46.7661 23.5076C47.5849 21.9024 48 20.1689 48 18.3552C48 12.0939 42.9061 7 36.6449 7ZM42.5299 26.1824C42.3341 26.33 42.2188 26.5611 42.2188 26.8065V29.8221L40.307 27.9113C40.1582 27.7627 39.9587 27.6827 39.7546 27.6827C39.678 27.6827 39.6007 27.694 39.5252 27.7172C38.5953 28.003 37.6263 28.1478 36.6449 28.1478H34.6677C29.2679 28.1478 24.875 23.7548 24.875 18.3552C24.875 12.9555 29.268 8.5625 34.6677 8.5625H36.6449C42.0446 8.5625 46.4375 12.9555 46.4375 18.3552C46.4375 21.4591 45.0133 24.3121 42.5299 26.1824Z" fill="#B8CCED"/>
<path d="M39.1735 15.5485C39.0608 13.9129 37.7423 12.5945 36.1067 12.4817C35.1795 12.4181 34.2947 12.7308 33.6174 13.3631C32.9495 13.9866 32.5664 14.868 32.5664 15.7814C32.5664 16.2128 32.9163 16.5626 33.3477 16.5626C33.7791 16.5626 34.1289 16.2128 34.1289 15.7814C34.1289 15.2924 34.3259 14.8392 34.6836 14.5053C35.0409 14.1718 35.508 14.0067 35.9994 14.0407C36.8609 14.1 37.5554 14.7945 37.6148 15.656C37.6748 16.526 37.1039 17.2949 36.2575 17.4843C35.5717 17.6378 35.0928 18.2337 35.0928 18.9335V20.8104C35.0928 21.2419 35.4427 21.5917 35.8741 21.5917C36.3055 21.5917 36.6553 21.2419 36.6552 20.8104V18.9959C38.2295 18.6156 39.2856 17.1751 39.1735 15.5485Z" fill="#B8CCED"/>
<path d="M36.4273 23.3484C36.282 23.2031 36.0805 23.1195 35.875 23.1195C35.6695 23.1195 35.468 23.2031 35.3227 23.3484C35.1773 23.4937 35.0938 23.6953 35.0938 23.9008C35.0938 24.107 35.1774 24.3086 35.3227 24.4539C35.468 24.5992 35.6695 24.682 35.875 24.682C36.0805 24.682 36.282 24.5992 36.4273 24.4539C36.5727 24.3078 36.6562 24.107 36.6562 23.9008C36.6562 23.6953 36.5726 23.4937 36.4273 23.3484Z" fill="#B8CCED"/>
<path d="M29.4844 31.2188H13C12.5686 31.2188 12.2188 31.5685 12.2188 32C12.2188 32.4315 12.5686 32.7812 13 32.7812H29.4844C29.9159 32.7812 30.2656 32.4315 30.2656 32C30.2656 31.5685 29.9158 31.2188 29.4844 31.2188Z" fill="#B8CCED"/>
<path d="M30.0366 35.8227C29.8914 35.6773 29.6898 35.5938 29.4844 35.5938C29.2789 35.5938 29.0773 35.6773 28.932 35.8227C28.7866 35.968 28.7031 36.1695 28.7031 36.375C28.7031 36.5805 28.7867 36.782 28.932 36.9273C29.0773 37.0727 29.2789 37.1562 29.4844 37.1562C29.6898 37.1562 29.8914 37.0727 30.0366 36.9273C30.182 36.782 30.2656 36.5813 30.2656 36.375C30.2656 36.1695 30.182 35.968 30.0366 35.8227Z" fill="#B8CCED"/>
<path d="M26.4115 35.5938H13C12.5686 35.5938 12.2188 35.9435 12.2188 36.375C12.2188 36.8065 12.5686 37.1562 13 37.1562H26.4115C26.843 37.1562 27.1927 36.8065 27.1927 36.375C27.1927 35.9435 26.8429 35.5938 26.4115 35.5938Z" fill="#B8CCED"/>
<path d="M24.4062 26.8438H13C12.5686 26.8438 12.2188 27.1935 12.2188 27.625C12.2188 28.0565 12.5686 28.4062 13 28.4062H24.4062C24.8377 28.4062 25.1875 28.0565 25.1875 27.625C25.1875 27.1935 24.8377 26.8438 24.4062 26.8438Z" fill="#B8CCED"/>
</svg>
