<svg width="56" height="56" viewBox="0 0 56 56" fill="none" xmlns="http://www.w3.org/2000/svg">
<path d="M14.6667 25.3333H23.3333C23.702 25.3333 24 25.0347 24 24.6667C24 24.2987 23.702 24 23.3333 24H14.6667C14.298 24 14 24.2987 14 24.6667C14 25.0347 14.298 25.3333 14.6667 25.3333Z" fill="#B8CCED"/>
<path d="M32 28H14.6667C14.298 28 14 28.2987 14 28.6667C14 29.0347 14.298 29.3333 14.6667 29.3333H32C32.3687 29.3333 32.6667 29.0347 32.6667 28.6667C32.6667 28.2987 32.3687 28 32 28Z" fill="#B8CCED"/>
<path d="M32 32H14.6667C14.298 32 14 32.2987 14 32.6667C14 33.0347 14.298 33.3333 14.6667 33.3333H32C32.3687 33.3333 32.6667 33.0347 32.6667 32.6667C32.6667 32.2987 32.3687 32 32 32Z" fill="#B8CCED"/>
<path d="M44.048 10.0467L21.2867 10C19.1067 10 17.3333 11.7733 17.3333 13.9533V17.3693L11.9533 17.3807C9.77333 17.3807 8 19.154 8 21.334V35.428C8 37.608 9.77333 39.3807 11.9533 39.3807H16V46.0473C16 46.3227 16.1693 46.57 16.4267 46.6693C16.5047 46.6993 16.586 46.714 16.6667 46.714C16.8507 46.714 17.0313 46.6373 17.16 46.496L23.6293 39.3793L34.7133 39.334C36.8933 39.334 38.6667 37.5607 38.6667 35.3813V35.306L42.1733 39.1633C42.302 39.3047 42.4827 39.3813 42.6667 39.3813C42.7473 39.3813 42.8287 39.3667 42.9067 39.3367C43.164 39.2373 43.3333 38.99 43.3333 38.7147V32.048H44.0467C46.2267 32.048 48 30.2747 48 28.0953V14C48 11.8207 46.2273 10.0473 44.048 10.0467ZM37.3333 35.3807C37.3333 36.8253 36.158 38 34.7107 38L23.3307 38.0467C23.144 38.0473 22.9653 38.1267 22.84 38.2647L17.3333 44.3227V38.7133C17.3333 38.3453 17.0353 38.0467 16.6667 38.0467H11.9533C10.5087 38.0467 9.33333 36.8713 9.33333 35.4273V21.3333C9.33333 19.8887 10.5087 18.7133 11.9547 18.7133L18 18.7007C18.0007 18.7007 18.0007 18.7007 18.0013 18.7007L34.7133 18.666C36.158 18.666 37.3333 19.8413 37.3333 21.286V33.58V35.3807ZM46.6667 28.094C46.6667 29.5387 45.4913 30.7133 44.0467 30.7133H42.6667C42.298 30.7133 42 31.012 42 31.38V36.9893L38.6667 33.3227V21.2867C38.6667 19.1067 36.8933 17.3333 34.712 17.3333L18.6667 17.366V13.9527C18.6667 12.508 19.842 11.3327 21.2853 11.3327L44.046 11.3793C44.0467 11.3793 44.0467 11.3793 44.0473 11.3793C45.492 11.3793 46.6673 12.5547 46.6673 13.9993V28.094H46.6667Z" fill="#B8CCED"/>
</svg>