<svg width="56" height="56" viewBox="0 0 56 56" fill="none" xmlns="http://www.w3.org/2000/svg">
<path d="M40.3438 19.6211C40.7752 19.6211 41.125 19.2713 41.125 18.8398V10.3438C41.125 9.05141 40.0736 8 38.7812 8H10.3438C9.05141 8 8 9.05141 8 10.3438V45.6562C8 46.9486 9.05141 48 10.3438 48H38.7812C40.0736 48 41.125 46.9486 41.125 45.6562V39.9006C41.125 39.4691 40.7752 39.1194 40.3438 39.1194C39.9123 39.1194 39.5625 39.4691 39.5625 39.9006V45.6562C39.5625 46.087 39.212 46.4375 38.7812 46.4375H10.3438C9.91297 46.4375 9.5625 46.087 9.5625 45.6562V10.3438C9.5625 9.91297 9.91297 9.5625 10.3438 9.5625H38.7812C39.212 9.5625 39.5625 9.91297 39.5625 10.3438V18.8398C39.5625 19.2713 39.9123 19.6211 40.3438 19.6211Z" fill="#AEC5EB"/>
<path d="M24.5625 12.2188C20.5993 12.2188 17.375 15.443 17.375 19.4062C17.375 21.4623 18.243 23.3191 19.6314 24.6304C19.6574 24.6582 19.6851 24.6845 19.7153 24.7085C20.9943 25.8787 22.6964 26.5937 24.5624 26.5937C26.4284 26.5937 28.1305 25.8787 29.4095 24.7085C29.4398 24.6845 29.4674 24.6581 29.4934 24.6304C30.882 23.3191 31.75 21.4623 31.75 19.4062C31.75 15.443 28.5257 12.2188 24.5625 12.2188ZM24.5625 25.0312C23.2868 25.0312 22.1095 24.6038 21.1648 23.8853C21.8514 22.6677 23.1327 21.9062 24.5625 21.9062C25.9923 21.9062 27.2736 22.6677 27.9602 23.8853C27.0155 24.6038 25.8382 25.0312 24.5625 25.0312ZM23.3125 19.0938V18.5859C23.3125 17.8967 23.8733 17.3359 24.5625 17.3359C25.2517 17.3359 25.8125 17.8967 25.8125 18.5859V19.0938C25.8125 19.783 25.2517 20.3438 24.5625 20.3438C23.8733 20.3438 23.3125 19.783 23.3125 19.0938ZM29.0891 22.7409C28.5129 21.8863 27.7144 21.2217 26.7873 20.8114C27.1552 20.3359 27.375 19.7402 27.375 19.0938V18.5859C27.375 17.0351 26.1134 15.7734 24.5625 15.7734C23.0116 15.7734 21.75 17.0351 21.75 18.5859V19.0938C21.75 19.7402 21.9698 20.3359 22.3377 20.8114C21.4106 21.2217 20.6121 21.8863 20.0359 22.7409C19.3462 21.807 18.9375 20.6537 18.9375 19.4062C18.9375 16.3046 21.4609 13.7812 24.5625 13.7812C27.6641 13.7812 30.1875 16.3046 30.1875 19.4062C30.1875 20.6537 29.7788 21.807 29.0891 22.7409Z" fill="#AEC5EB"/>
<path d="M28.7812 42.2188H24.5625C24.1311 42.2188 23.7812 42.5685 23.7812 43C23.7812 43.4315 24.1311 43.7812 24.5625 43.7812H28.7812C29.2127 43.7812 29.5625 43.4315 29.5625 43C29.5625 42.5685 29.2127 42.2188 28.7812 42.2188Z" fill="#AEC5EB"/>
<path d="M28.7812 37.8438H17.6875C17.2561 37.8438 16.9062 38.1935 16.9062 38.625C16.9062 39.0565 17.2561 39.4062 17.6875 39.4062H28.7812C29.2127 39.4062 29.5625 39.0565 29.5625 38.625C29.5625 38.1935 29.2127 37.8438 28.7812 37.8438Z" fill="#AEC5EB"/>
<path d="M28.7812 33.4688H17.6875C17.2561 33.4688 16.9062 33.8185 16.9062 34.25C16.9062 34.6815 17.2561 35.0312 17.6875 35.0312H28.7812C29.2127 35.0312 29.5625 34.6815 29.5625 34.25C29.5625 33.8185 29.2127 33.4688 28.7812 33.4688Z" fill="#AEC5EB"/>
<path d="M14.9027 29.3227C14.7574 29.1773 14.5559 29.0938 14.3496 29.0938C14.1441 29.0938 13.9425 29.1773 13.7973 29.3227C13.652 29.468 13.5684 29.6695 13.5684 29.875C13.5684 30.0805 13.6519 30.282 13.7973 30.4273C13.9434 30.5727 14.1441 30.6562 14.3496 30.6562C14.5559 30.6562 14.7566 30.5727 14.9027 30.4273C15.048 30.282 15.1316 30.0805 15.1316 29.875C15.1316 29.6695 15.048 29.468 14.9027 29.3227Z" fill="#AEC5EB"/>
<path d="M14.9027 33.6977C14.7566 33.5523 14.5559 33.4688 14.3496 33.4688C14.1441 33.4688 13.9434 33.5523 13.7973 33.6977C13.652 33.843 13.5684 34.0445 13.5684 34.25C13.5684 34.4555 13.6519 34.657 13.7973 34.8023C13.9434 34.9477 14.1441 35.0312 14.3496 35.0312C14.5559 35.0312 14.7566 34.9477 14.9027 34.8023C15.048 34.657 15.1316 34.4555 15.1316 34.25C15.1316 34.0445 15.048 33.843 14.9027 33.6977Z" fill="#AEC5EB"/>
<path d="M14.9027 38.0727C14.7566 37.9273 14.5559 37.8438 14.3496 37.8438C14.1441 37.8438 13.9434 37.9273 13.7973 38.0727C13.652 38.218 13.5684 38.4195 13.5684 38.625C13.5684 38.8305 13.6519 39.032 13.7973 39.1773C13.9425 39.3227 14.1441 39.4062 14.3496 39.4062C14.5559 39.4062 14.7574 39.3227 14.9027 39.1773C15.048 39.032 15.1316 38.8305 15.1316 38.625C15.1316 38.4195 15.048 38.218 14.9027 38.0727Z" fill="#AEC5EB"/>
<path d="M28.7812 29.0938H17.6875C17.2561 29.0938 16.9062 29.4435 16.9062 29.875C16.9062 30.3065 17.2561 30.6562 17.6875 30.6562H28.7812C29.2127 30.6562 29.5625 30.3065 29.5625 29.875C29.5625 29.4435 29.2127 29.0938 28.7812 29.0938Z" fill="#AEC5EB"/>
<path d="M46.3584 18.1812C45.5994 17.743 44.7152 17.6266 43.8685 17.8534C43.0219 18.0803 42.3143 18.6233 41.8762 19.3823L32.0447 36.4106C31.9909 36.504 31.9569 36.6075 31.9449 36.7146L31.2529 42.9133C31.2185 43.2218 31.3699 43.5214 31.6387 43.6766C31.76 43.7466 31.8947 43.7813 32.0292 43.7813C32.1926 43.7813 32.3555 43.7301 32.4926 43.6291L37.5147 39.9304C37.6015 39.8665 37.6742 39.7853 37.728 39.6919L47.5594 22.6636C48.464 21.0967 47.9253 19.0859 46.3584 18.1812ZM33.0038 41.312L33.3652 38.0751L35.6263 39.3806L33.0038 41.312ZM36.7655 38.234L33.7886 36.5153L41.678 22.8505L44.655 24.5692L36.7655 38.234ZM46.2062 21.8823L45.4362 23.2161L42.4592 21.4973L43.2293 20.1635C43.4588 19.7659 43.8294 19.4815 44.2729 19.3627C44.7165 19.2438 45.1796 19.3049 45.5771 19.5344C45.9747 19.764 46.259 20.1346 46.3779 20.578C46.4967 21.0215 46.4358 21.4847 46.2062 21.8823Z" fill="#AEC5EB"/>
</svg>
