<svg width="56" height="56" viewBox="0 0 56 56" fill="none" xmlns="http://www.w3.org/2000/svg">
<path d="M46.0055 38.3157L38.3136 33.1861C37.3375 32.5404 36.029 32.7528 35.3074 33.6744L33.0668 36.5552C32.7789 36.9348 32.2554 37.045 31.8389 36.8136L31.4127 36.5786C29.9998 35.8085 28.2419 34.8497 24.6999 31.3065C21.1579 27.7633 20.1972 26.004 19.4271 24.5937L19.1934 24.1675C18.9588 23.751 19.0669 23.2254 19.4467 22.9351L22.3256 20.6952C23.2467 19.9735 23.4595 18.6654 22.8145 17.689L17.6849 9.99713C17.0239 9.00282 15.6977 8.70434 14.6744 9.31949L11.4579 11.2516C10.4473 11.8458 9.70582 12.808 9.389 13.9367C8.23076 18.1569 9.10209 25.4403 19.8312 36.1707C28.366 44.7049 34.7198 46.9999 39.0869 46.9999C40.092 47.0042 41.0931 46.8734 42.0634 46.6111C43.1923 46.2946 44.1547 45.5531 44.7485 44.5422L46.6825 41.3276C47.2986 40.3041 47.0002 38.9771 46.0055 38.3157ZM45.5913 40.6778L43.6617 43.8943C43.2353 44.624 42.5431 45.1604 41.7301 45.3914C37.8342 46.461 31.0277 45.5751 20.7273 35.2747C10.4269 24.9743 9.54099 18.1684 10.6106 14.2718C10.8419 13.4578 11.379 12.7648 12.1096 12.3377L15.326 10.4081C15.7701 10.141 16.3457 10.2705 16.6325 10.7019L19.419 14.8854L21.7577 18.3931C22.0378 18.8167 21.9458 19.3843 21.5462 19.6977L18.6667 21.9376C17.7904 22.6077 17.5401 23.8201 18.0796 24.7824L18.3083 25.1978C19.1177 26.6822 20.1239 28.5289 23.7976 32.202C27.4713 35.875 29.3173 36.8813 30.8011 37.6906L31.2171 37.9199C32.1793 38.4593 33.3918 38.2091 34.0619 37.3328L36.3018 34.4533C36.6152 34.054 37.1827 33.962 37.6063 34.2418L45.2976 39.3714C45.7293 39.658 45.8588 40.2339 45.5913 40.6778Z" fill="#B8CCED"/>
<path d="M30.5337 15.3359C36.4767 15.3425 41.2928 20.1587 41.2995 26.1017C41.2995 26.4515 41.583 26.735 41.9328 26.735C42.2825 26.735 42.566 26.4515 42.566 26.1017C42.5587 19.4594 37.1759 14.0766 30.5337 14.0693C30.1839 14.0693 29.9004 14.3528 29.9004 14.7026C29.9004 15.0524 30.1839 15.3359 30.5337 15.3359Z" fill="#B8CCED"/>
<path d="M30.5337 19.1354C34.3791 19.1399 37.4953 22.2561 37.4998 26.1016C37.4998 26.4513 37.7834 26.7348 38.1331 26.7348C38.4828 26.7348 38.7663 26.4513 38.7663 26.1016C38.7611 21.5569 35.0782 17.8741 30.5337 17.8689C30.1839 17.8689 29.9004 18.1524 29.9004 18.5022C29.9004 18.8519 30.1839 19.1354 30.5337 19.1354Z" fill="#B8CCED"/>
<path d="M30.5337 22.935C32.2815 22.9371 33.6979 24.3535 33.7001 26.1014C33.7001 26.4512 33.9837 26.7347 34.3334 26.7347C34.683 26.7347 34.9666 26.4512 34.9666 26.1014C34.9638 23.6543 32.9808 21.6712 30.5337 21.6685C30.1839 21.6685 29.9004 21.952 29.9004 22.3017C29.9004 22.6515 30.1839 22.935 30.5337 22.935Z" fill="#B8CCED"/>
</svg>
