<svg width="56" height="56" viewBox="0 0 56 56" fill="none" xmlns="http://www.w3.org/2000/svg">
<circle cx="28" cy="28" r="28" fill="white" fill-opacity="0.2"/>
<path d="M28 8C16.9723 8 8 16.9723 8 28C8 39.0277 16.9723 48 28 48C39.0277 48 48 39.0277 48 28C48 16.9723 39.0277 8 28 8ZM28 46.0016C18.0734 46.0016 9.99837 37.9266 9.99837 28C9.99837 18.0734 18.0734 9.99837 28 9.99837C37.9266 9.99837 46.0016 18.0734 46.0016 28C46.0016 37.9266 37.9266 46.0016 28 46.0016Z" fill="white"/>
<path d="M28.111 22.355C28.8703 22.355 29.522 22.4853 30.066 22.746C30.6213 23.0067 31.035 23.358 31.307 23.8C31.5903 24.242 31.732 24.7293 31.732 25.262C31.732 25.9533 31.5337 26.5313 31.137 26.996C30.7403 27.4493 30.1963 27.7667 29.505 27.948C30.2643 28.016 30.8877 28.288 31.375 28.764C31.8623 29.24 32.106 29.8973 32.106 30.736C32.106 31.3933 31.936 31.9883 31.596 32.521C31.2673 33.0537 30.7913 33.4787 30.168 33.796C29.5447 34.102 28.808 34.255 27.958 34.255C26.394 34.255 25.1587 33.7053 24.252 32.606L25.459 31.45C25.8443 31.8353 26.224 32.1187 26.598 32.3C26.972 32.47 27.3857 32.555 27.839 32.555C28.451 32.555 28.9383 32.385 29.301 32.045C29.675 31.6937 29.862 31.2233 29.862 30.634C29.862 29.9767 29.6863 29.5063 29.335 29.223C28.995 28.9397 28.485 28.798 27.805 28.798H26.904L27.159 27.251H27.771C28.3263 27.251 28.7683 27.098 29.097 26.792C29.437 26.486 29.607 26.061 29.607 25.517C29.607 25.0523 29.454 24.6897 29.148 24.429C28.842 24.157 28.434 24.021 27.924 24.021C27.482 24.021 27.0797 24.106 26.717 24.276C26.3543 24.4347 25.9917 24.684 25.629 25.024L24.524 23.817C25.5553 22.8423 26.751 22.355 28.111 22.355Z" fill="white"/>
</svg>
