<svg width="56" height="56" viewBox="0 0 56 56" fill="none" xmlns="http://www.w3.org/2000/svg">
<circle cx="28" cy="28" r="28" fill="white" fill-opacity="0.2"/>
<path d="M28 8C16.9723 8 8 16.9723 8 28C8 39.0277 16.9723 48 28 48C39.0277 48 48 39.0277 48 28C48 16.9723 39.0277 8 28 8ZM28 46.0016C18.0734 46.0016 9.99837 37.9266 9.99837 28C9.99837 18.0734 18.0734 9.99837 28 9.99837C37.9266 9.99837 46.0016 18.0734 46.0016 28C46.0016 37.9266 37.9266 46.0016 28 46.0016Z" fill="white"/>
<path d="M33.2371 23.1306L25.5699 30.757L22.7722 27.943C22.3806 27.5514 21.7526 27.5514 21.3611 27.9348C20.9696 28.3182 20.9696 28.9544 21.3529 29.3459L24.8521 32.8695C25.0479 33.0653 25.3007 33.1632 25.5617 33.1632C25.8146 33.1632 26.0674 33.0653 26.2632 32.8695L34.64 24.5416C35.0315 24.1501 35.0315 23.5221 34.6482 23.1306C34.2567 22.739 33.6286 22.739 33.2371 23.1306Z" fill="white"/>
</svg>
