<svg width="469" height="77" viewBox="0 0 469 77" fill="none" xmlns="http://www.w3.org/2000/svg">
<path d="M1 71C1 71 87 -3.60226e-05 233 0.999967C379 1.99997 465 71 465 71" stroke="#3F88C5" stroke-linejoin="round"/>
<path d="M466.796 71.2156C467.176 71.9358 466.582 72.7841 465.775 72.6732L461.811 72.1278C461.07 72.0259 460.7 71.1763 461.129 70.5636L463.224 67.5706C463.653 66.9579 464.579 67.0158 464.928 67.6772L466.796 71.2156Z" fill="#3F88C5"/>
<path d="M261 71C261 71 301 41 358 41C415 41 455 71 455 71" stroke="#3F88C5" stroke-linejoin="round"/>
<path d="M456.757 71.2156C457.137 71.9358 456.543 72.7841 455.736 72.6732L451.772 72.1278C451.031 72.0259 450.66 71.1763 451.089 70.5636L453.185 67.5706C453.614 66.9579 454.539 67.0158 454.889 67.6772L456.757 71.2156Z" fill="#3F88C5"/>
</svg>
